<svg width="360" height="120" xmlns="http://www.w3.org/2000/svg" xmlns:xlink="http://www.w3.org/1999/xlink" overflow="hidden"><g><rect x="0" y="0" width="360" height="120" fill="#FFFFFF"/><g><g><g><path d="M112.65 35.78C111.636 35.3414 110.459 35.8076 110.02 36.8214 110.013 36.8375 110.007 36.8537 110 36.87L107.49 42.92C107.267 42.9054 107.043 42.9054 106.82 42.92 103.65 42.92 100.9 45.48 99.21 49.54L95.77 57.85C95.3495 58.8573 95.0378 59.9066 94.84 60.98 93.3083 60.3334 91.6626 60.0002 90 60L75 60C73.4412 60.124 71.8977 60.3952 70.39 60.81 70 58 67.22 56 67 55.82 68.7102 54.5022 70.3398 53.0829 71.88 51.57 75.79 47.67 76.31 42.92 73.3 39.57 72.1356 38.1068 70.297 37.3502 68.44 37.57L68.44 37.57C67.8021 35.7488 66.41 34.291 64.62 33.57 63.7916 33.213 62.9019 33.0194 62 33 55 33 53 44 52 47.19 51.21 47.08 42 46 40.16 53L36 53C34.8954 53 34 53.8954 34 55 34 56.1046 34.8954 57 36 57L40.46 57C41.64 60.07 46 64 54.35 61.1 54.42 63.1 57 68 60.35 69.33 57 71 54.08 78.26 53.84 78.84 51.7 83.84 52.94 88.73 57.1 90.45 57.933 90.8 58.8265 90.9834 59.73 90.99 63 91 66 88.56 67.61 84.57 67.85 84 71 78 69.94 74 71.5369 74.6878 73.2616 75.0286 75 75L90 75C90.9817 75.0022 91.9607 74.8983 92.92 74.69 92.6584 76.7898 92.9801 78.921 93.85 80.85 94.09 81.43 95.15 83.96 95.38 84.55 97 88.56 100 91 103.28 91 104.181 90.9985 105.072 90.8148 105.9 90.46 110.06 88.74 111.3 83.9 109.17 78.87 108.92 78.28 107.87 75.73 107.64 75.15 106.773 72.7774 105.108 70.78 102.93 69.5 105.34 68.73 107.4 66.42 108.74 63.18 108.94 62.72 112 55.33 112.19 54.87 113.94 50.64 113.71 46.74 111.19 44.54L113.73 38.41C114.161 37.393 113.686 36.2191 112.669 35.788 112.663 35.7853 112.656 35.7826 112.65 35.78ZM68.47 41.53C70.0657 41.5658 71.3303 42.8884 71.2945 44.4841 71.2921 44.5898 71.2839 44.6952 71.27 44.8 70.9588 46.3241 70.1624 47.7064 69 48.74L66.87 50.86C65.7486 52.1443 64.1774 52.9496 62.48 53.11 61.7258 53.1295 60.9988 52.8278 60.48 52.28 58.84 50.57 60 47.85 62 45.91L64.13 43.79C65.2412 42.518 66.7907 41.7112 68.47 41.53ZM62 37C62.3824 37.0047 62.7598 37.0863 63.11 37.24 63.7431 37.4751 64.262 37.9439 64.56 38.55L64.56 38.55C60 40 56.52 46.4 56 48.14L56 48.14C55 46 57 37 62 37ZM49.66 58 49.24 58C46.61 58 44 56.87 44 54.5 44 52.13 46.59 51.05 49.22 51L49.69 51C52.33 51 55 52.09 55 54.5 55 56.91 52.32 58 49.66 58ZM59.92 64.13C58.9919 63.283 58.423 62.113 58.33 60.86 58.4283 59.1389 59.7992 57.7637 61.52 57.66 62.7933 57.7467 63.9835 58.3238 64.84 59.27L65.06 59.5 65.06 59.5C66.54 60.99 67.48 63.21 65.68 65.01 65.1193 65.637 64.3211 65.9998 63.48 66.01 62.2188 65.9261 61.0394 65.3561 60.19 64.42 60.1054 64.3184 60.0153 64.2216 59.92 64.13ZM65.47 79.29C65.22 79.87 64.14 82.46 63.9 83.06 62.9 85.45 61.3 86.99 59.73 86.99 59.3509 86.9853 58.9766 86.9036 58.63 86.75 57.9316 86.4822 57.3769 85.9348 57.1 85.24 56.6185 83.632 56.7687 81.901 57.52 80.4 57.77 79.81 58.84 77.23 59.07 76.65 60.07 74.23 61.71 72.65 63.28 72.65 63.6552 72.6512 64.0262 72.7295 64.37 72.88 65.0653 73.1436 65.6172 73.6882 65.89 74.38 66.3871 76.0097 66.2366 77.7684 65.47 79.29ZM75 71C72.46 71 69.5 70.08 69.5 67.5 69.5 64.92 72.46 64 75 64L90 64C92.74 64 95.5 65.08 95.5 67.5 95.5 69.92 92.74 71 90 71ZM105.49 80.42C106.24 81.9146 106.386 83.6402 105.9 85.24 105.628 85.94 105.072 86.4921 104.37 86.76 104.025 86.9059 103.655 86.984 103.28 86.99 101.7 86.99 100.06 85.44 99.09 83.05 98.85 82.45 97.78 79.88 97.54 79.3 96.7763 77.7851 96.6224 76.035 97.11 74.41 97.3794 73.7137 97.932 73.1648 98.63 72.9 98.9752 72.7541 99.3453 72.676 99.72 72.67 101.3 72.67 102.95 74.23 103.93 76.67ZM108.49 53.32 105.05 61.64C104.05 64.16 102.46 65.78 101.12 65.78 100.776 65.779 100.436 65.7076 100.12 65.57 99.3905 65.3145 98.8579 64.6823 98.73 63.92 98.5158 62.3547 98.7698 60.7611 99.46 59.34L100.32 57.25 103 51C104 48.48 105.58 46.85 106.91 46.85 107.254 46.8537 107.594 46.925 107.91 47.06 108.641 47.3162 109.176 47.9472 109.31 48.71 109.496 50.2939 109.211 51.8976 108.49 53.32Z"/></g></g></g><text fill="#4472C4" font-family="Calibri,Calibri_MSFontService,sans-serif" font-weight="400" font-size="80" transform="translate(133.85 80)">ayaka</text></g></svg>